<?xml version="1.0" encoding="UTF-8"?>
<svg width="64" height="64" viewBox="0 0 64 64" fill="none" xmlns="http://www.w3.org/2000/svg">
  <rect width="64" height="64" rx="16" fill="#60A5FA"/>
  <path d="M20 32C20 36.4183 16.4183 40 12 40C7.58172 40 4 36.4183 4 32C4 27.5817 7.58172 24 12 24C16.4183 24 20 27.5817 20 32Z" fill="white"/>
  <path d="M40 32C40 36.4183 36.4183 40 32 40C27.5817 40 24 36.4183 24 32C24 27.5817 27.5817 24 32 24C36.4183 24 40 27.5817 40 32Z" fill="white" fill-opacity="0.8"/>
  <path d="M60 32C60 36.4183 56.4183 40 52 40C47.5817 40 44 36.4183 44 32C44 27.5817 47.5817 24 52 24C56.4183 24 60 27.5817 60 32Z" fill="white" fill-opacity="0.6"/>
</svg>
