<?xml version="1.0" encoding="UTF-8"?>
<svg width="64" height="64" viewBox="0 0 64 64" fill="none" xmlns="http://www.w3.org/2000/svg">
  <rect width="64" height="64" rx="16" fill="#34D399"/>
  <path d="M32 44C38.6274 44 44 38.6274 44 32C44 25.3726 38.6274 20 32 20C25.3726 20 20 25.3726 20 32C20 38.6274 25.3726 44 32 44Z" fill="white"/>
  <path d="M32 38C35.3137 38 38 35.3137 38 32C38 28.6863 35.3137 26 32 26C28.6863 26 26 28.6863 26 32C26 35.3137 28.6863 38 32 38Z" fill="#34D399"/>
  <rect x="44" y="28" width="4" height="8" rx="2" fill="white"/>
  <rect x="16" y="28" width="4" height="8" rx="2" fill="white"/>
</svg>
